<?xml version="1.0" encoding="UTF-8" standalone="no"?>
<!-- Created with Inkscape (http://www.inkscape.org/) -->

<svg
   width="210mm"
   height="297mm"
   viewBox="0 0 210 297"
   version="1.1"
   id="svg1"
   inkscape:version="1.4.2 (f4327f4, 2025-05-13)"
   sodipodi:docname="salmonella.svg"
   xmlns:inkscape="http://www.inkscape.org/namespaces/inkscape"
   xmlns:sodipodi="http://sodipodi.sourceforge.net/DTD/sodipodi-0.dtd"
   xmlns="http://www.w3.org/2000/svg"
   xmlns:svg="http://www.w3.org/2000/svg">
  <sodipodi:namedview
     id="namedview1"
     pagecolor="#ffffff"
     bordercolor="#000000"
     borderopacity="0.25"
     inkscape:showpageshadow="2"
     inkscape:pageopacity="0.0"
     inkscape:pagecheckerboard="0"
     inkscape:deskcolor="#d1d1d1"
     inkscape:document-units="mm"
     inkscape:zoom="1.5290171"
     inkscape:cx="376.05858"
     inkscape:cy="666.1142"
     inkscape:window-width="1090"
     inkscape:window-height="802"
     inkscape:window-x="233"
     inkscape:window-y="345"
     inkscape:window-maximized="0"
     inkscape:current-layer="g23" />
  <defs
     id="defs1" />
  <g
     inkscape:label="Layer 1"
     inkscape:groupmode="layer"
     id="layer1">
    <g
       transform="matrix(0.26458333,0,0,0.26458333,-95.249997,-432.06459)"
       id="g23">
      <path
         d="m 548.96,2315.5 h 200.081 c 26.247,0 47.459,27.33 47.459,61 0,33.71 -21.212,61 -47.459,61 H 548.96 c -26.206,0 -47.46,-27.29 -47.46,-61 0,-33.67 21.254,-61 47.46,-61 z"
         stroke="#000000"
         stroke-width="0"
         stroke-linejoin="round"
         stroke-miterlimit="10"
         fill="#f8cbad"
         fill-rule="evenodd"
         id="path12"
         style="fill:#b6f8a4;fill-opacity:1" />
      <path
         d="m 548.459,2315 h 200.082 c 26.247,0 47.459,27.33 47.459,61 0,33.71 -21.212,61 -47.459,61 H 548.459 C 522.254,2437 501,2409.71 501,2376 c 0,-33.67 21.254,-61 47.459,-61 z"
         stroke="#575756"
         stroke-width="3.50005"
         stroke-miterlimit="8"
         fill="none"
         fill-rule="evenodd"
         id="path13" />
      <path
         d="m 545,2371.5 c 0,-16.84 13.431,-30.5 30,-30.5 16.569,0 30,13.66 30,30.5 0,16.84 -13.431,30.5 -30,30.5 -16.569,0 -30,-13.66 -30,-30.5 z"
         stroke="#000000"
         stroke-width="3.50005"
         stroke-miterlimit="8"
         fill="none"
         fill-rule="evenodd"
         id="path14" />
      <path
         d="m 543.5,2355.82 c 7.93,-16.78 28.703,-24.32 46.459,-16.82 7.758,3.29 14.007,9.15 17.541,16.47 l -11.033,4.81 c -5.516,-10.57 -19.308,-15.04 -30.858,-10.01 -4.87,2.12 -8.749,5.77 -11.033,10.23 z"
         stroke="#000000"
         stroke-width="0"
         stroke-linejoin="round"
         stroke-miterlimit="10"
         fill="#ed7d31"
         fill-rule="evenodd"
         id="path15" />
      <path
         d="m 567,2397.5 c 0,-16.29 13.431,-29.5 30,-29.5 16.569,0 30,13.21 30,29.5 0,16.29 -13.431,29.5 -30,29.5 -16.569,0 -30,-13.21 -30,-29.5 z"
         stroke="#000000"
         stroke-width="3.50005"
         stroke-miterlimit="8"
         fill="none"
         fill-rule="evenodd"
         id="path16" />
      <path
         d="m 566.5,2381.81 c 7.795,-16.78 28.267,-24.31 45.74,-16.78 7.624,3.29 13.748,9.12 17.26,16.43 l -10.878,4.82 c -5.397,-10.56 -19.016,-15.02 -30.365,-9.99 -4.754,2.15 -8.609,5.74 -10.836,10.21 z"
         stroke="#000000"
         stroke-width="0"
         stroke-linejoin="round"
         stroke-miterlimit="10"
         fill="#ed7d31"
         fill-rule="evenodd"
         id="path17" />
      <path
         d="m 667,2359 c 0,-16.57 13.431,-30 30,-30 16.569,0 30,13.43 30,30 0,16.57 -13.431,30 -30,30 -16.569,0 -30,-13.43 -30,-30 z"
         stroke="#000000"
         stroke-width="3.50005"
         stroke-miterlimit="8"
         fill="none"
         fill-rule="evenodd"
         id="path18" />
      <path
         d="m 665.5,2342.98 c 7.93,-16.2 28.703,-23.48 46.459,-16.24 7.758,3.18 14.007,8.83 17.541,15.91 l -11.033,4.64 c -5.516,-10.21 -19.308,-14.52 -30.858,-9.67 -4.87,2.05 -8.749,5.57 -11.033,9.88 z"
         stroke="#000000"
         stroke-width="0"
         stroke-linejoin="round"
         stroke-miterlimit="10"
         fill="#ed7d31"
         fill-rule="evenodd"
         id="path19"
         style="fill:#31ed5a;fill-opacity:1" />
      <path
         d="m 795.60774,2372.1 c 7.828,7.45 15.657,14.9 23.985,12.42 8.328,-2.49 14.99,-24.18 25.817,-26.99 10.827,-2.81 27.982,11.92 38.975,10.43 10.994,-1.49 16.657,-17.71 27.317,-19.04 10.493,-1.32 23.818,11.76 36.31,10.93 12.326,-1 24.984,-15.07 37.976,-16.56 12.98996,-1.32 27.81996,9.11 40.30996,8.11 12.32,-0.99 30.15,-12.41 34.31,-14.4"
         stroke="#7f7f7f"
         stroke-width="2.33333"
         stroke-miterlimit="8"
         fill="none"
         fill-rule="evenodd"
         id="path23" />
      <path
         d="m 795.48068,2366.1277 c 8.79932,6.2731 17.59962,12.5461 25.49528,8.9178 7.89425,-3.6382 11.43473,-26.0503 21.75799,-30.3574 10.32326,-4.307 29.382,7.8599 40.05554,4.8363 10.67452,-3.0237 13.99643,-19.8796 24.36282,-22.6978 10.20246,-2.7849 25.23698,8.2879 37.48753,5.7066 12.06226,-2.7262 22.61227,-18.4388 35.26487,-21.7439 12.67459,-3.1366 28.82569,5.1006 41.05039,2.3513 12.0577,-2.7154 28.1014,-16.533 31.9396,-19.0891"
         stroke="#7f7f7f"
         stroke-width="2.33333"
         stroke-miterlimit="8"
         fill="none"
         fill-rule="evenodd"
         id="path23-5" />
      <path
         d="m 795.68221,2379.1292 c 7.10802,8.1398 14.21702,16.2797 22.73816,14.5778 8.52205,-1.7118 17.15485,-22.6954 28.19479,-24.4956 11.0399,-1.8001 26.76419,14.4485 37.84775,13.978 11.08454,-0.4704 18.21842,-16.0993 28.95562,-16.4411 10.57,-0.3473 22.63266,13.9052 35.14804,14.2301 12.36565,0.1403 26.26668,-12.703 39.34073,-12.9892 13.0563,-0.1172 26.8618,11.6353 39.3909,11.7908 12.3587,0.1498 31.1654,-9.5783 35.4911,-11.1764"
         stroke="#7f7f7f"
         stroke-width="2.33333"
         stroke-miterlimit="8"
         fill="none"
         fill-rule="evenodd"
         id="path23-5-1" />
    </g>
  </g>
</svg>
